<svg xmlns="http://www.w3.org/2000/svg" viewBox="0 0 670.9 670.98"><defs><style>.cls-1{fill:#000b00;}</style></defs><g id="Layer_2" data-name="Layer 2"><g id="Layer_1-2" data-name="Layer 1"><circle class="cls-1" cx="229.05" cy="635.07" r="17.95"/><circle class="cls-1" cx="191.63" cy="619.03" r="17.95"/><circle class="cls-1" cx="156.56" cy="598.34" r="17.95"/><circle class="cls-1" cx="124.44" cy="573.33" r="17.95"/><circle class="cls-1" cx="95.77" cy="544.42" r="17.95"/><circle class="cls-1" cx="71.03" cy="512.08" r="17.95"/><circle class="cls-1" cx="50.63" cy="476.85" r="17.95"/><circle class="cls-1" cx="34.91" cy="439.29" r="17.95" transform="matrix(0.03, -1, 1, 0.03, -405.3, 459.56)"/><circle class="cls-1" cx="24.12" cy="400.04" r="17.95"/><circle class="cls-1" cx="18.43" cy="359.72" r="17.95"/><circle class="cls-1" cx="17.95" cy="319.01" r="17.95" transform="matrix(0.03, -1, 1, 0.03, -301.48, 326.33)"/><circle class="cls-1" cx="22.68" cy="278.57" r="17.95"/><circle class="cls-1" cx="32.54" cy="239.07" r="17.95" transform="matrix(0.03, -1, 1, 0.03, -207.48, 263.64)"/><circle class="cls-1" cx="47.37" cy="201.15" r="17.95"/><circle class="cls-1" cx="66.93" cy="165.44" r="17.95"/><circle class="cls-1" cx="90.9" cy="132.53" r="17.95"/><circle class="cls-1" cx="118.87" cy="102.95" r="17.95"/><circle class="cls-1" cx="150.4" cy="77.19" r="17.95"/><circle class="cls-1" cx="184.96" cy="55.68" r="17.95"/><circle class="cls-1" cx="221.99" cy="38.76" r="17.95"/><circle class="cls-1" cx="260.89" cy="26.71" r="17.95"/><circle class="cls-1" cx="301" cy="19.74" r="17.95"/><circle class="cls-1" cx="341.67" cy="17.95" r="17.95"/><circle class="cls-1" cx="382.24" cy="21.38" r="17.95"/><circle class="cls-1" cx="422.04" cy="29.97" r="17.95"/><circle class="cls-1" cx="460.41" cy="43.58" r="17.95"/><circle class="cls-1" cx="496.73" cy="61.98" r="17.95"/><circle class="cls-1" cx="530.39" cy="84.88" r="17.95"/><circle class="cls-1" cx="560.86" cy="111.89" r="17.95"/><circle class="cls-1" cx="587.61" cy="142.58" r="17.95"/><circle class="cls-1" cx="610.22" cy="176.44" r="17.95"/><circle class="cls-1" cx="628.32" cy="212.91" r="17.95"/><circle class="cls-1" cx="641.61" cy="251.39" r="17.95"/><circle class="cls-1" cx="649.86" cy="291.26" r="17.95"/><circle class="cls-1" cx="652.95" cy="331.86" r="17.95"/><circle class="cls-1" cx="650.82" cy="372.51" r="17.95"/><circle class="cls-1" cx="643.51" cy="412.57" r="17.95"/><circle class="cls-1" cx="631.14" cy="451.35" r="17.95"/><circle class="cls-1" cx="613.91" cy="488.24" r="17.95"/><circle class="cls-1" cx="592.11" cy="522.62" r="17.95"/><circle class="cls-1" cx="566.09" cy="553.94" r="17.95"/><circle class="cls-1" cx="536.27" cy="581.66" r="17.95"/><circle class="cls-1" cx="503.16" cy="605.35" r="17.95"/><circle class="cls-1" cx="467.28" cy="624.61" r="17.95"/><circle class="cls-1" cx="429.24" cy="639.12" r="17.95"/><circle class="cls-1" cx="389.66" cy="648.65" r="17.95"/><circle class="cls-1" cx="349.18" cy="653.03" r="17.95"/><circle class="cls-1" cx="308.48" cy="652.21" r="17.95"/><circle class="cls-1" cx="268.21" cy="646.19" r="17.95" transform="translate(-62.37 29.57) rotate(-5.65)"/></g></g></svg>