<svg xmlns="http://www.w3.org/2000/svg" viewBox="0 0 513.39 513.34"><defs><style>.cls-1{fill:#000b00;}</style></defs><g id="Layer_2" data-name="Layer 2"><g id="Layer_1-2" data-name="Layer 1"><circle class="cls-1" cx="273.68" cy="495.39" r="17.95"/><circle class="cls-1" cx="226.74" cy="494.12" r="17.95"/><circle class="cls-1" cx="180.96" cy="483.71" r="17.95"/><circle class="cls-1" cx="138.08" cy="464.55" r="17.95"/><circle class="cls-1" cx="99.78" cy="437.39" r="17.95"/><circle class="cls-1" cx="67.51" cy="403.27" r="17.95"/><circle class="cls-1" cx="42.53" cy="363.51" r="17.95"/><circle class="cls-1" cx="25.79" cy="319.64" r="17.95"/><circle class="cls-1" cx="17.95" cy="273.35" r="17.95" transform="translate(-103.24 27.68) rotate(-22.5)"/><circle class="cls-1" cx="19.29" cy="226.41" r="17.95"/><circle class="cls-1" cx="29.78" cy="180.64" r="17.95"/><circle class="cls-1" cx="49" cy="137.8" r="17.95"/><circle class="cls-1" cx="76.22" cy="99.53" r="17.95"/><circle class="cls-1" cx="110.38" cy="67.32" r="17.95"/><circle class="cls-1" cx="150.18" cy="42.4" r="17.95"/><circle class="cls-1" cx="194.08" cy="25.73" r="17.95"/><circle class="cls-1" cx="240.39" cy="17.95" r="17.95"/><circle class="cls-1" cx="287.32" cy="19.37" r="17.95"/><circle class="cls-1" cx="333.08" cy="29.92" r="17.95"/><circle class="cls-1" cx="375.89" cy="49.21" r="17.95"/><circle class="cls-1" cx="414.11" cy="76.49" r="17.95"/><circle class="cls-1" cx="446.27" cy="110.7" r="17.95"/><circle class="cls-1" cx="471.13" cy="150.54" r="17.95"/><circle class="cls-1" cx="487.73" cy="194.46" r="17.95"/><circle class="cls-1" cx="495.44" cy="240.78" r="17.95"/><circle class="cls-1" cx="493.95" cy="287.72" r="17.95"/><circle class="cls-1" cx="483.32" cy="333.46" r="17.95"/><circle class="cls-1" cx="463.97" cy="376.24" r="17.95"/><circle class="cls-1" cx="436.64" cy="414.42" r="17.95"/><circle class="cls-1" cx="402.37" cy="446.53" r="17.95"/><circle class="cls-1" cx="362.5" cy="471.33" r="17.95"/><circle class="cls-1" cx="318.55" cy="487.86" r="17.95"/></g></g></svg>